# xmcd
#
# Track frame offsets:
#	150
#	13055
#	26647
#	39475
#	51616
#	65090
#	77927
#	89757
#	102396
#	113931
#	128103
#	140714
#	154578
#	167838
#	181133
#	191761
#	205596
#	218409
#	229120
#	242254
#
# Disc length: 3387 seconds
#
# Revision: 1
# Processed by: cddbd v1.5.2PL0 Copyright (c) Steve Scherf et al.
# Submitted via: audiograbber 1.83.01
#
DISCID=1c0d3914
DTITLE=Bukka White - High Fever Blues
DYEAR=1900
DGENRE=Blues
TTITLE0=Strange Place Blues
TTITLE1=Shake 'Em On Down
TTITLE2=Fixin' To Die Blues
TTITLE3=District Attorney Blues
TTITLE4=The New Frisco Train
TTITLE5=Sleepy Man Blues
TTITLE6=Bukka's Jitterbug Swing
TTITLE7=High Fever Blues
TTITLE8=Aberdeen Mississippi Blues
TTITLE9=The Panama Limited
TTITLE10=Pinebluff, Arkansas
TTITLE11=The Promise True and Grand
TTITLE12=Black Train Blues
TTITLE13=When Can I Change My Clothes?
TTITLE14=Godd Gin Blues
TTITLE15=I Am In The Heavenly Way
TTITLE16=Po' Boy
TTITLE17=Sic 'Em Dogs
TTITLE18=Special Stream Line
TTITLE19=Parchman Farm Blues
EXTD=
EXTT0=
EXTT1=
EXTT2=
EXTT3=
EXTT4=
EXTT5=
EXTT6=
EXTT7=
EXTT8=
EXTT9=
EXTT10=
EXTT11=
EXTT12=
EXTT13=
EXTT14=
EXTT15=
EXTT16=
EXTT17=
EXTT18=
EXTT19=
PLAYORDER=
